<svg id="visual" viewBox="0 0 900 600" width="900" height="600" xmlns="http://www.w3.org/2000/svg" xmlns:xlink="http://www.w3.org/1999/xlink" version="1.1"><path d="M0 243L30 254C60 265 120 287 180 286.2C240 285.3 300 261.7 360 242.7C420 223.7 480 209.3 540 236.7C600 264 660 333 720 341.3C780 349.7 840 297.3 870 271.2L900 245L900 601L870 601C840 601 780 601 720 601C660 601 600 601 540 601C480 601 420 601 360 601C300 601 240 601 180 601C120 601 60 601 30 601L0 601Z" fill="#40b5ad" stroke-linecap="round" stroke-linejoin="miter"></path></svg>