<svg id="visual" viewBox="0 0 900 600" width="900" height="600" xmlns="http://www.w3.org/2000/svg" xmlns:xlink="http://www.w3.org/1999/xlink" version="1.1"><path d="M0 227L21.5 215.3C43 203.7 86 180.3 128.8 171C171.7 161.7 214.3 166.3 257.2 178.7C300 191 343 211 385.8 213.2C428.7 215.3 471.3 199.7 514.2 201.8C557 204 600 224 642.8 226C685.7 228 728.3 212 771.2 198.8C814 185.7 857 175.3 878.5 170.2L900 165L900 0L878.5 0C857 0 814 0 771.2 0C728.3 0 685.7 0 642.8 0C600 0 557 0 514.2 0C471.3 0 428.7 0 385.8 0C343 0 300 0 257.2 0C214.3 0 171.7 0 128.8 0C86 0 43 0 21.5 0L0 0Z" fill="#17abc5"></path><path d="M0 145L21.5 140C43 135 86 125 128.8 121.7C171.7 118.3 214.3 121.7 257.2 122.8C300 124 343 123 385.8 121.3C428.7 119.7 471.3 117.3 514.2 125.5C557 133.7 600 152.3 642.8 164.5C685.7 176.7 728.3 182.3 771.2 182.3C814 182.3 857 176.7 878.5 173.8L900 171L900 0L878.5 0C857 0 814 0 771.2 0C728.3 0 685.7 0 642.8 0C600 0 557 0 514.2 0C471.3 0 428.7 0 385.8 0C343 0 300 0 257.2 0C214.3 0 171.7 0 128.8 0C86 0 43 0 21.5 0L0 0Z" fill="#179db4"></path><path d="M0 96L21.5 97.7C43 99.3 86 102.7 128.8 106C171.7 109.3 214.3 112.7 257.2 112.5C300 112.3 343 108.7 385.8 104C428.7 99.3 471.3 93.7 514.2 99C557 104.3 600 120.7 642.8 117.5C685.7 114.3 728.3 91.7 771.2 91C814 90.3 857 111.7 878.5 122.3L900 133L900 0L878.5 0C857 0 814 0 771.2 0C728.3 0 685.7 0 642.8 0C600 0 557 0 514.2 0C471.3 0 428.7 0 385.8 0C343 0 300 0 257.2 0C214.3 0 171.7 0 128.8 0C86 0 43 0 21.5 0L0 0Z" fill="#178fa4"></path><path d="M0 37L21.5 36.7C43 36.3 86 35.7 128.8 39.5C171.7 43.3 214.3 51.7 257.2 58.3C300 65 343 70 385.8 74.5C428.7 79 471.3 83 514.2 78.3C557 73.7 600 60.3 642.8 54.7C685.7 49 728.3 51 771.2 56.3C814 61.7 857 70.3 878.5 74.7L900 79L900 0L878.5 0C857 0 814 0 771.2 0C728.3 0 685.7 0 642.8 0C600 0 557 0 514.2 0C471.3 0 428.7 0 385.8 0C343 0 300 0 257.2 0C214.3 0 171.7 0 128.8 0C86 0 43 0 21.5 0L0 0Z" fill="#178194"></path></svg>